<svg width="24" height="20" viewBox="0 0 24 20" fill="none" xmlns="http://www.w3.org/2000/svg">
<path d="M19 7.09677C18.44 7.09677 17.91 7.23871 17.41 7.45806L14.46 0H11V1.93548H13.54L14.42 4.15484L12 11.1355L10.23 5.74194C10.5 5.6129 10.74 5.26452 10.74 4.83871C10.74 4.30968 10.41 3.87097 10 3.87097H8C7.58 3.87097 7.24 4.30968 7.24 4.83871C7.24 5.36774 7.58 5.80645 8 5.80645H8.61L10.86 12.5806H9.92C9.56 9.48387 7.5 7.09677 5 7.09677C2.24 7.09677 0 9.9871 0 13.5484C0 17.1097 2.24 20 5 20C7.5 20 9.56 17.6129 9.92 14.5161H12.5L15.29 6.36129L16.08 8.33548C15.4377 8.92917 14.914 9.71155 14.5524 10.618C14.1907 11.5244 14.0014 12.5289 14 13.5484C14 17.1097 16.24 20 19 20C21.76 20 24 17.1097 24 13.5484C24 9.9871 21.76 7.09677 19 7.09677ZM5 18.0645C3.07 18.0645 1.5 16.0387 1.5 13.5484C1.5 11.0581 3.07 9.03226 5 9.03226C6.67 9.03226 8.07 10.5548 8.41 12.5806H4V14.5161H8.41C8.24017 15.5205 7.80949 16.4199 7.18932 17.0652C6.56915 17.7106 5.79671 18.0631 5 18.0645ZM19 18.0645C17.07 18.0645 15.5 16.0387 15.5 13.5484C15.5 12.1548 16 10.929 16.77 10.1032L18.57 14.6452L19.89 13.7161L18.1 9.2C18.39 9.10968 18.69 9.03226 19 9.03226C20.93 9.03226 22.5 11.0581 22.5 13.5484C22.5 16.0387 20.93 18.0645 19 18.0645Z" fill="black"/>
</svg>
