<svg width="24" height="24" viewBox="0 0 24 24" fill="none" xmlns="http://www.w3.org/2000/svg">
<path d="M4 12H20M8 15.5C8 15.6326 7.94732 15.7598 7.85355 15.8536C7.75979 15.9473 7.63261 16 7.5 16C7.36739 16 7.24021 15.9473 7.14645 15.8536C7.05268 15.7598 7 15.6326 7 15.5C7 15.3674 7.05268 15.2402 7.14645 15.1464C7.24021 15.0527 7.36739 15 7.5 15C7.63261 15 7.75979 15.0527 7.85355 15.1464C7.94732 15.2402 8 15.3674 8 15.5ZM17 15.5C17 15.6326 16.9473 15.7598 16.8536 15.8536C16.7598 15.9473 16.6326 16 16.5 16C16.3674 16 16.2402 15.9473 16.1464 15.8536C16.0527 15.7598 16 15.6326 16 15.5C16 15.3674 16.0527 15.2402 16.1464 15.1464C16.2402 15.0527 16.3674 15 16.5 15C16.6326 15 16.7598 15.0527 16.8536 15.1464C16.9473 15.2402 17 15.3674 17 15.5ZM6.4 2H17.6C18.2365 2 18.847 2.25286 19.2971 2.70294C19.7471 3.15303 20 3.76348 20 4.4V20.4C20 20.8243 19.8314 21.2313 19.5314 21.5314C19.2313 21.8314 18.8243 22 18.4 22H17.6C17.1757 22 16.7687 21.8314 16.4686 21.5314C16.1686 21.2313 16 20.8243 16 20.4V19H8V20.4C8 20.8243 7.83143 21.2313 7.53137 21.5314C7.23131 21.8314 6.82435 22 6.4 22H5.6C5.38988 22 5.18183 21.9586 4.98771 21.8782C4.79359 21.7978 4.6172 21.6799 4.46863 21.5314C4.16857 21.2313 4 20.8243 4 20.4V4.4C4 3.76348 4.25286 3.15303 4.70294 2.70294C5.15303 2.25286 5.76348 2 6.4 2Z" stroke="black" stroke-width="1.5" stroke-miterlimit="10" stroke-linecap="round" stroke-linejoin="round"/>
</svg>
