<svg width="48" height="48" viewBox="0 0 48 48" fill="none" xmlns="http://www.w3.org/2000/svg">
<path d="M23 36C31 36 37.92 31.56 41.48 25C37.92 18.44 31 14 23 14C15 14 8.08 18.44 4.52 25C8.08 31.56 15 36 23 36ZM23 12C32.12 12 40 17.3 43.72 25C40 32.7 32.12 38 23 38C13.88 38 6 32.7 2.28 25C6 17.3 13.88 12 23 12ZM23 16C28 16 32 20 32 25C32 30 28 34 23 34C18 34 14 30 14 25C14 20 18 16 23 16ZM23 18C21.1435 18 19.363 18.7375 18.0503 20.0503C16.7375 21.363 16 23.1435 16 25C16 26.8565 16.7375 28.637 18.0503 29.9497C19.363 31.2625 21.1435 32 23 32C24.8565 32 26.637 31.2625 27.9497 29.9497C29.2625 28.637 30 26.8565 30 25C30 23.1435 29.2625 21.363 27.9497 20.0503C26.637 18.7375 24.8565 18 23 18Z" fill="black"/>
</svg>
