<svg width="24" height="24" viewBox="0 0 24 24" fill="none" xmlns="http://www.w3.org/2000/svg">
<path d="M11.7291 8C12.79 8 13.8074 8.42143 14.5576 9.17157C15.3077 9.92172 15.7291 10.9391 15.7291 12C15.7291 13.0609 15.3077 14.0783 14.5576 14.8284C13.8074 15.5786 12.79 16 11.7291 16C10.6683 16 9.65086 15.5786 8.90071 14.8284C8.15057 14.0783 7.72914 13.0609 7.72914 12C7.72914 10.9391 8.15057 9.92172 8.90071 9.17157C9.65086 8.42143 10.6683 8 11.7291 8ZM11.7291 10C11.1987 10 10.69 10.2107 10.3149 10.5858C9.93985 10.9609 9.72914 11.4696 9.72914 12C9.72914 12.5304 9.93985 13.0391 10.3149 13.4142C10.69 13.7893 11.1987 14 11.7291 14C12.2596 14 12.7683 13.7893 13.1434 13.4142C13.5184 13.0391 13.7291 12.5304 13.7291 12C13.7291 11.4696 13.5184 10.9609 13.1434 10.5858C12.7683 10.2107 12.2596 10 11.7291 10ZM9.72914 22C9.47914 22 9.26914 21.82 9.22914 21.58L8.85914 18.93C8.22914 18.68 7.68914 18.34 7.16914 17.94L4.67914 18.95C4.45914 19.03 4.18914 18.95 4.06914 18.73L2.06914 15.27C2.00794 15.167 1.98636 15.0452 2.00845 14.9274C2.03053 14.8096 2.09477 14.7039 2.18914 14.63L4.29914 12.97L4.22914 12L4.29914 11L2.18914 9.37C2.09477 9.29613 2.03053 9.19042 2.00845 9.07263C1.98636 8.95484 2.00794 8.83304 2.06914 8.73L4.06914 5.27C4.18914 5.05 4.45914 4.96 4.67914 5.05L7.16914 6.05C7.68914 5.66 8.22914 5.32 8.85914 5.07L9.22914 2.42C9.26914 2.18 9.47914 2 9.72914 2H13.7291C13.9791 2 14.1891 2.18 14.2291 2.42L14.5991 5.07C15.2291 5.32 15.7691 5.66 16.2891 6.05L18.7791 5.05C18.9991 4.96 19.2691 5.05 19.3891 5.27L21.3891 8.73C21.5191 8.95 21.4591 9.22 21.2691 9.37L19.1591 11L19.2291 12L19.1591 13L21.2691 14.63C21.4591 14.78 21.5191 15.05 21.3891 15.27L19.3891 18.73C19.2691 18.95 18.9991 19.04 18.7791 18.95L16.2891 17.95C15.7691 18.34 15.2291 18.68 14.5991 18.93L14.2291 21.58C14.1891 21.82 13.9791 22 13.7291 22H9.72914ZM10.9791 4L10.6091 6.61C9.40914 6.86 8.34914 7.5 7.57914 8.39L5.16914 7.35L4.41914 8.65L6.52914 10.2C6.12914 11.3667 6.12914 12.6333 6.52914 13.8L4.40914 15.36L5.15914 16.66L7.58914 15.62C8.35914 16.5 9.40914 17.14 10.5991 17.38L10.9691 20H12.4891L12.8591 17.39C14.0491 17.14 15.0991 16.5 15.8691 15.62L18.2991 16.66L19.0491 15.36L16.9291 13.81C17.3291 12.64 17.3291 11.37 16.9291 10.2L19.0391 8.65L18.2891 7.35L15.8791 8.39C15.0934 7.48032 14.0275 6.85767 12.8491 6.62L12.4791 4H10.9791Z" fill="black"/>
</svg>
