<svg width="15" height="21" viewBox="0 0 15 21" fill="none" xmlns="http://www.w3.org/2000/svg">
<path fill-rule="evenodd" clip-rule="evenodd" d="M7.5 4C7.04037 4 6.58525 4.09053 6.16061 4.26642C5.73597 4.44231 5.35013 4.70012 5.02513 5.02513C4.70012 5.35013 4.44231 5.73597 4.26642 6.16061C4.09053 6.58525 4 7.04037 4 7.5C4 7.95963 4.09053 8.41475 4.26642 8.83939C4.44231 9.26403 4.70012 9.64987 5.02513 9.97487C5.35013 10.2999 5.73597 10.5577 6.16061 10.7336C6.58525 10.9095 7.04037 11 7.5 11C8.42826 11 9.3185 10.6313 9.97487 9.97487C10.6313 9.3185 11 8.42826 11 7.5C11 6.57174 10.6313 5.6815 9.97487 5.02513C9.3185 4.36875 8.42826 4 7.5 4ZM6 7.5C6 7.10218 6.15804 6.72064 6.43934 6.43934C6.72064 6.15804 7.10218 6 7.5 6C7.89782 6 8.27936 6.15804 8.56066 6.43934C8.84196 6.72064 9 7.10218 9 7.5C9 7.89782 8.84196 8.27936 8.56066 8.56066C8.27936 8.84196 7.89782 9 7.5 9C7.10218 9 6.72064 8.84196 6.43934 8.56066C6.15804 8.27936 6 7.89782 6 7.5Z" fill="black"/>
<path fill-rule="evenodd" clip-rule="evenodd" d="M7.5 0C3.328 0 0 3.483 0 7.712C0 9.901 1.214 12.101 2.565 13.998C3.488 15.294 4.575 16.576 5.522 17.692C5.962 18.212 6.372 18.695 6.722 19.128L7.5 20.092L8.278 19.128C8.628 18.695 9.038 18.212 9.478 17.692C10.425 16.576 11.512 15.294 12.435 13.998C13.786 12.1 15 9.9 15 7.712C15 3.483 11.672 0 7.5 0ZM2 7.712C2 4.527 4.492 2 7.5 2C10.508 2 13 4.527 13 7.712C13 9.231 12.125 10.986 10.806 12.837C9.929 14.068 8.951 15.221 8.034 16.302C7.85267 16.514 7.67467 16.724 7.5 16.932L6.966 16.302C6.049 15.222 5.071 14.068 4.194 12.837C2.876 10.987 2 9.231 2 7.712Z" fill="black"/>
</svg>
