<svg width="41" height="39" viewBox="0 0 41 39" fill="none" xmlns="http://www.w3.org/2000/svg">
<path d="M19.5 39C16.8076 39 14.2754 38.4872 11.9037 37.4617C9.53189 36.4347 7.4685 35.0437 5.7135 33.2887C3.95706 31.5322 2.56606 29.4681 1.5405 27.0963C0.5135 24.7246 0 22.1924 0 19.5C0 16.8076 0.512778 14.2754 1.53833 11.9037C2.56389 9.53189 3.95561 7.4685 5.7135 5.7135C7.47139 3.9585 9.53478 2.56678 11.9037 1.53833C14.2769 0.512778 16.809 0 19.5 0C24.5498 0 28.9062 1.66617 32.5693 4.9985C36.2324 8.33083 38.3291 12.4468 38.8592 17.3463H36.6665C36.2866 14.2104 35.1542 11.3959 33.2692 8.90283C31.3842 6.40972 28.9611 4.57022 26 3.38433V4.33333C26 5.525 25.5761 6.5455 24.7282 7.39483C23.8803 8.24417 22.8598 8.66811 21.6667 8.66667H17.3333V13C17.3333 13.6139 17.1253 14.1288 16.7093 14.5448C16.2933 14.9608 15.7791 15.1681 15.1667 15.1667H10.8333V19.5H14.833V26H13L2.6 15.6C2.49167 16.25 2.39272 16.9 2.30317 17.55C2.21361 18.2 2.16811 18.85 2.16667 19.5C2.16667 24.2306 3.82778 28.2931 7.15 31.6875C10.4722 35.0819 14.5889 36.7972 19.5 36.8333V39ZM39.0498 38.415L31.5748 31.0267C30.9277 31.4874 30.2264 31.8486 29.471 32.11C28.7156 32.37 27.9197 32.5 27.0833 32.5C24.9586 32.5 23.1638 31.7677 21.6992 30.303C20.2331 28.8354 19.5 27.04 19.5 24.9167C19.5 22.7933 20.2331 20.9986 21.6992 19.5325C23.1653 18.0664 24.96 17.3333 27.0833 17.3333C29.2067 17.3333 31.0021 18.0664 32.4697 19.5325C33.9372 20.9986 34.6696 22.7933 34.6667 24.9167C34.6667 25.7804 34.5294 26.5966 34.255 27.365C33.9806 28.1349 33.5978 28.8434 33.1067 29.4905L40.5817 36.8832L39.0498 38.415ZM27.0833 30.3333C28.6 30.3333 29.8819 29.8097 30.9292 28.7625C31.9764 27.7153 32.5 26.4333 32.5 24.9167C32.5 23.4 31.9764 22.1181 30.9292 21.0708C29.8819 20.0236 28.6 19.5 27.0833 19.5C25.5667 19.5 24.2847 20.0236 23.2375 21.0708C22.1903 22.1181 21.6667 23.4 21.6667 24.9167C21.6667 26.4333 22.1903 27.7153 23.2375 28.7625C24.2847 29.8097 25.5667 30.3333 27.0833 30.3333Z" fill="black"/>
</svg>
