<svg width="22" height="21" viewBox="0 0 22 21" fill="none" xmlns="http://www.w3.org/2000/svg">
<path d="M11.11 17.0853L11 17.1952L10.879 17.0853C5.654 12.3498 2.2 9.21839 2.2 6.04305C2.2 3.84558 3.85 2.19747 6.05 2.19747C7.744 2.19747 9.394 3.29621 9.977 4.79049H12.023C12.606 3.29621 14.256 2.19747 15.95 2.19747C18.15 2.19747 19.8 3.84558 19.8 6.04305C19.8 9.21839 16.346 12.3498 11.11 17.0853ZM15.95 0C14.036 0 12.199 0.889976 11 2.28537C9.801 0.889976 7.964 0 6.05 0C2.662 0 0 2.64795 0 6.04305C0 10.1853 3.74 13.5804 9.405 18.7115L11 20.1618L12.595 18.7115C18.26 13.5804 22 10.1853 22 6.04305C22 2.64795 19.338 0 15.95 0Z" fill="black"/>
</svg>
