<svg width="26" height="26" viewBox="0 0 26 26" fill="none" xmlns="http://www.w3.org/2000/svg">
<path d="M7.95 0.751434V20.0836M16.35 5.41782V24.0834M4.6536 2.34601L3.1812 3.29528C1.9944 4.05924 1.4016 4.44188 1.0764 5.07784C0.750001 5.7138 0.750001 6.48709 0.750001 8.03633V18.921C0.750001 20.9556 0.750001 21.9742 1.1604 22.5395C1.434 22.9154 1.8168 23.1688 2.2404 23.2528C2.8764 23.3794 3.6564 22.8768 5.214 21.8728C6.2724 21.1915 7.29 20.4823 8.556 20.6756C9.132 20.7622 9.6804 21.0662 10.7796 21.6728L15.3552 24.2007C16.3452 24.7473 16.3548 24.75 17.4552 24.75H19.95C22.2132 24.75 23.3436 24.75 24.0468 23.9514C24.75 23.1541 24.75 21.8688 24.75 19.2983V10.3122C24.75 7.74302 24.75 6.45909 24.0468 5.65914C23.3436 4.86186 22.2132 4.86186 19.95 4.86186H17.4552C16.3548 4.86186 16.3452 4.85919 15.3552 4.31256L11.358 2.10469C9.6888 1.18208 8.8536 0.72077 7.9644 0.751434C7.0752 0.782099 6.27 1.30473 4.6536 2.34601Z" stroke="black" stroke-width="1.5" stroke-linecap="round" stroke-linejoin="round"/>
</svg>
