<svg width="22" height="20" viewBox="0 0 22 20" fill="none" xmlns="http://www.w3.org/2000/svg">
<path d="M20.75 2.99695C20.75 2.20195 19.96 1.47095 18.633 0.889946C17.458 0.374946 16.25 1.35695 16.25 2.63895V5.85595C14.672 6.21295 12.782 6.41995 10.75 6.41995C8.718 6.41995 6.828 6.21295 5.25 5.85695C2.539 5.24395 0.75 4.19195 0.75 2.99695M20.75 2.99695C20.75 4.19295 18.961 5.24495 16.25 5.85695M20.75 2.99695V6.13695M0.75 2.99695C0.75 2.20295 1.54 1.47195 2.867 0.890946C4.042 0.374946 5.25 1.35695 5.25 2.63895V5.85595M0.75 2.99695V15.7139C0.75 17.6039 5.227 19.1369 10.75 19.1369C16.273 19.1369 20.75 17.6039 20.75 15.7129V10.1369" stroke="black" stroke-width="1.5" stroke-linecap="round"/>
<path d="M18.25 10.137C18.25 10.5348 18.092 10.9163 17.8107 11.1976C17.5294 11.4789 17.1478 11.637 16.75 11.637C16.3522 11.637 15.9706 11.4789 15.6893 11.1976C15.408 10.9163 15.25 10.5348 15.25 10.137C15.25 9.73914 15.408 9.35761 15.6893 9.0763C15.9706 8.795 16.3522 8.63696 16.75 8.63696C17.1478 8.63696 17.5294 8.795 17.8107 9.0763C18.092 9.35761 18.25 9.73914 18.25 10.137Z" stroke="black" stroke-width="1.5"/>
<path d="M19.75 17.1369L17.254 14.9879C16.8557 14.6505 16.3584 14.4518 15.8373 14.4218C15.3161 14.3919 14.7993 14.5323 14.365 14.8219L14.135 14.9769C13.8342 15.1783 13.4741 15.2717 13.1134 15.2419C12.7526 15.2121 12.4127 15.0609 12.149 14.8129L8.829 11.6359C8.50254 11.3289 8.07521 11.1515 7.62724 11.1371C7.17927 11.1228 6.74146 11.2724 6.396 11.5579L5.04 12.6939L1.25 16.2409" stroke="black" stroke-width="1.5" stroke-linecap="round"/>
</svg>
