<svg width="25" height="22" viewBox="0 0 25 22" fill="none" xmlns="http://www.w3.org/2000/svg">
<path d="M19.0333 13.3C19.0202 13.2681 18.9998 13.2397 18.9738 13.2171C18.9477 13.1945 18.9167 13.1784 18.8833 13.17C17.8333 12.81 13.5233 7.83 13.5233 4.5V3.99C13.5233 3.82 13.6033 3.5 13.2833 3.5H12.0333C11.967 3.5 11.9034 3.52634 11.8565 3.57322C11.8096 3.62011 11.7833 3.6837 11.7833 3.75V6.5C11.7833 6.69891 11.7043 6.88968 11.5636 7.03033C11.423 7.17098 11.2322 7.25 11.0333 7.25C10.8344 7.25 10.6436 7.17098 10.503 7.03033C10.3623 6.88968 10.2833 6.69891 10.2833 6.5V3.75C10.2833 3.6837 10.257 3.62011 10.2101 3.57322C10.1632 3.52634 10.0996 3.5 10.0333 3.5H7.21329C7.11343 3.5013 7.01624 3.53247 6.93425 3.58951C6.85227 3.64654 6.78924 3.72682 6.75329 3.82L0.0332919 20.82C0.00360618 20.8955 -0.00646057 20.9773 0.00403194 21.0577C0.0145244 21.1382 0.0452339 21.2146 0.0932919 21.28C0.137373 21.3484 0.198131 21.4045 0.269852 21.443C0.341574 21.4815 0.421905 21.5011 0.503292 21.5H10.0333C10.0996 21.5 10.1632 21.4737 10.2101 21.4268C10.257 21.3799 10.2833 21.3163 10.2833 21.25V18.5C10.2833 18.3011 10.3623 18.1103 10.503 17.9697C10.6436 17.829 10.8344 17.75 11.0333 17.75C11.2322 17.75 11.423 17.829 11.5636 17.9697C11.7043 18.1103 11.7833 18.3011 11.7833 18.5V21.25C11.7833 21.3163 11.8096 21.3799 11.8565 21.4268C11.9034 21.4737 11.967 21.5 12.0333 21.5H21.5333C21.6145 21.5002 21.6945 21.4802 21.7661 21.4418C21.8376 21.4034 21.8985 21.3478 21.9433 21.28C21.9914 21.2146 22.0221 21.1382 22.0326 21.0577C22.043 20.9773 22.033 20.8955 22.0033 20.82L19.0333 13.3ZM11.7733 14.5C11.7733 14.6989 11.6943 14.8897 11.5536 15.0303C11.413 15.171 11.2222 15.25 11.0233 15.25C10.8244 15.25 10.6336 15.171 10.493 15.0303C10.3523 14.8897 10.2733 14.6989 10.2733 14.5V10.5C10.2733 10.3011 10.3523 10.1103 10.493 9.96967C10.6336 9.82902 10.8244 9.75 11.0233 9.75C11.2222 9.75 11.413 9.82902 11.5536 9.96967C11.6943 10.1103 11.7733 10.3011 11.7733 10.5V14.5ZM19.8933 11.62C20.9733 10.47 24.0333 6.98 24.0333 4.5C24.0333 3.30653 23.5592 2.16193 22.7153 1.31802C21.8714 0.474106 20.7268 0 19.5333 0C18.3398 0 17.1952 0.474106 16.3513 1.31802C15.5074 2.16193 15.0333 3.30653 15.0333 4.5C15.0333 6.98 18.0933 10.5 19.1733 11.62C19.2192 11.6697 19.2748 11.7093 19.3368 11.7365C19.3988 11.7636 19.4657 11.7776 19.5333 11.7776C19.6009 11.7776 19.6678 11.7636 19.7298 11.7365C19.7917 11.7093 19.8474 11.6697 19.8933 11.62ZM18.0333 4.5C18.0333 4.20333 18.1213 3.91332 18.2861 3.66664C18.4509 3.41997 18.6852 3.22771 18.9593 3.11418C19.2334 3.00065 19.535 2.97094 19.8259 3.02882C20.1169 3.0867 20.3842 3.22956 20.594 3.43934C20.8037 3.64912 20.9466 3.91639 21.0045 4.20736C21.0623 4.49834 21.0326 4.79994 20.9191 5.07403C20.8056 5.34811 20.6133 5.58238 20.3666 5.7472C20.12 5.91203 19.83 6 19.5333 6C19.1355 6 18.7539 5.84196 18.4726 5.56066C18.1913 5.27936 18.0333 4.89782 18.0333 4.5Z" fill="black"/>
</svg>
