<svg width="24" height="24" viewBox="0 0 24 24" fill="none" xmlns="http://www.w3.org/2000/svg">
<path d="M12 23.9987C8.55543 23.198 5.69429 21.565 3.41657 19.0996C1.13886 16.6342 0 13.8562 0 10.7655V3.50889L12 0L24 3.50889V10.7655C24 13.8553 22.8611 16.6329 20.5834 19.0983C18.3057 21.5637 15.4446 23.1962 12 23.9987ZM12 22.575C14.9714 21.837 17.4286 20.361 19.3714 18.1469C21.3143 15.9329 22.2857 13.4729 22.2857 10.7669V4.42536L12 1.43308L1.71429 4.42536V10.7655C1.71429 13.4715 2.68571 15.9316 4.62857 18.1456C6.57143 20.3596 9.02857 21.837 12 22.575Z" fill="black"/>
</svg>
