<svg width="17" height="22" viewBox="0 0 17 22" fill="none" xmlns="http://www.w3.org/2000/svg">
<path d="M11.0468 4.1244C12.4544 4.1244 13.5964 3.2007 13.5964 2.0622C13.5964 0.923693 12.4544 0 11.0468 0C9.63923 0 8.49724 0.923693 8.49724 2.0622C8.49724 3.2007 9.63923 4.1244 11.0468 4.1244ZM16.0663 10.5301L14.8287 10.0231L14.3134 8.76004C13.5326 6.84392 11.3549 5.50349 8.88498 5.49919C6.97281 5.4949 5.9158 5.93311 3.92926 6.58185C2.78195 6.95562 1.8418 7.6645 1.28939 8.56671L0.933514 9.151C0.519209 9.82981 0.85384 10.6547 1.68776 10.9941C2.51637 11.3335 3.52558 11.0585 3.94519 10.3797L4.30107 9.79544C4.48698 9.4947 4.79505 9.25841 5.17748 9.13382L6.60099 8.66982L5.79363 11.2776C5.51743 12.1713 5.81488 13.1207 6.58506 13.8038L9.76671 16.6136C10.1491 16.953 10.42 17.3611 10.5581 17.8036L11.5302 20.9528C11.7586 21.6874 12.6828 22.1386 13.5911 21.9538C14.4993 21.7691 15.0571 21.0215 14.8287 20.2869L13.6495 16.4632C13.5114 16.0207 13.2405 15.6083 12.8581 15.2732L10.4413 13.1379L11.3549 10.1864L11.647 10.8953C11.9285 11.587 12.5341 12.1584 13.3308 12.4849L14.5684 12.9918C15.397 13.3312 16.4062 13.0563 16.8258 12.3775C17.2348 11.703 16.9002 10.8695 16.0663 10.5301ZM3.90801 16.5749C3.73804 16.9229 3.48308 17.2365 3.15376 17.4986L0.497963 19.651C-0.165988 20.1881 -0.165988 21.0602 0.497963 21.5972C1.16191 22.1343 2.23486 22.1343 2.89881 21.5972L6.0539 19.0453C6.37791 18.7832 6.63286 18.4696 6.80815 18.1216L7.52521 16.6694C4.5879 14.0788 5.46962 14.8736 5.00751 14.3623L3.90801 16.5749Z" fill="black"/>
</svg>
