<svg width="128" height="77" viewBox="0 0 128 77" fill="none" xmlns="http://www.w3.org/2000/svg">
<path d="M43.1287 26.8263C43.1602 26.4642 43.1838 26.0547 43.1995 25.5981C43.231 25.1256 43.2468 24.4957 43.2468 23.7084C42.8846 24.5902 42.3649 25.3225 41.6878 25.9051C41.0264 26.472 40.302 26.8972 39.5146 27.1807C38.7273 27.4484 37.9714 27.5822 37.247 27.5822C35.8455 27.5822 34.5857 27.346 33.4677 26.8736C32.3496 26.3854 31.4678 25.6059 30.8221 24.5351C30.1765 23.4643 29.8537 22.0392 29.8537 20.2597C29.8537 18.9527 30.0584 17.7165 30.4678 16.5512C30.8772 15.3702 31.452 14.323 32.1921 13.4096C32.9323 12.4805 33.8062 11.7562 34.8141 11.2365C35.8219 10.7011 36.9242 10.4334 38.121 10.4334C39.0344 10.4334 39.8138 10.52 40.4595 10.6932C41.1051 10.8664 41.6327 11.0711 42.0421 11.3074C42.4515 11.5436 42.7586 11.7719 42.9633 11.9924C43.1838 12.1971 43.3255 12.3388 43.3885 12.4175C43.4515 12.4805 43.483 12.575 43.483 12.701C43.483 12.9057 43.3885 13.1183 43.1995 13.3388C43.0263 13.5435 42.8452 13.6458 42.6562 13.6458C42.5145 13.6458 42.4043 13.575 42.3255 13.4332C42.3098 13.4018 42.2232 13.2994 42.0657 13.1262C41.924 12.9372 41.6878 12.7325 41.3571 12.512C41.0421 12.2916 40.617 12.0947 40.0816 11.9215C39.5619 11.7483 38.9084 11.6617 38.121 11.6617C37.1762 11.6617 36.2864 11.89 35.4518 12.3467C34.6172 12.7876 33.885 13.4096 33.2551 14.2127C32.6252 15.0001 32.1291 15.9134 31.767 16.9528C31.4048 17.9921 31.2237 19.0944 31.2237 20.2597C31.2237 21.7242 31.4756 22.9053 31.9795 23.8029C32.4835 24.6847 33.1842 25.3304 34.0818 25.7398C34.9952 26.1335 36.0502 26.3303 37.247 26.3303C37.9084 26.3303 38.5856 26.1965 39.2784 25.9288C39.9871 25.661 40.6327 25.2595 41.2154 24.7241C41.8138 24.1729 42.2941 23.4958 42.6562 22.6927C43.0342 21.8738 43.2231 20.929 43.2231 19.8582C43.2231 19.7794 43.1759 19.7401 43.0814 19.7401L40.2705 19.929C40.0028 19.9448 39.7036 19.9763 39.3729 20.0235C39.0422 20.055 38.7509 20.0865 38.4989 20.118H38.4281C38.2234 20.118 38.0265 19.992 37.8376 19.7401C37.6643 19.4881 37.5777 19.2676 37.5777 19.0787C37.5777 18.8897 37.6643 18.7952 37.8376 18.7952H38.1683C38.436 18.7952 38.7273 18.7952 39.0422 18.7952C39.3572 18.7795 39.617 18.7637 39.8217 18.748L42.7507 18.5826C42.8767 18.5669 43.0106 18.5511 43.1523 18.5354C43.294 18.5039 43.4357 18.4881 43.5775 18.4881C43.6877 18.4881 43.8215 18.5511 43.979 18.6771C44.1365 18.7873 44.2782 18.9212 44.4042 19.0787C44.5459 19.2204 44.6168 19.3464 44.6168 19.4566C44.6168 19.5668 44.5932 19.6613 44.5459 19.7401C44.5144 19.803 44.4987 19.9211 44.4987 20.0944V24.9367C44.4987 25.0626 44.4987 25.2674 44.4987 25.5508C44.5144 25.8343 44.5223 26.1177 44.5223 26.4012C44.538 26.6846 44.5459 26.9051 44.5459 27.0626C44.5459 27.1728 44.4987 27.2437 44.4042 27.2751C44.3255 27.3224 44.2231 27.346 44.0971 27.346C43.8924 27.346 43.6798 27.2988 43.4594 27.2043C43.2389 27.0941 43.1287 26.9759 43.1287 26.85V26.8263ZM50.8044 16.7874C51.1193 16.5512 51.4973 16.3308 51.9382 16.126C52.3949 15.9056 52.9539 15.7953 53.6153 15.7953C54.9538 15.7953 56.0404 16.2914 56.875 17.2835C57.7253 18.2755 58.1505 19.6613 58.1505 21.4408C58.1505 22.1966 58.0245 22.9368 57.7726 23.6611C57.5364 24.3855 57.182 25.0469 56.7096 25.6453C56.2372 26.2437 55.6546 26.724 54.9617 27.0862C54.2688 27.4326 53.4657 27.6058 52.5523 27.6058C50.9776 27.6058 49.7572 27.1334 48.8911 26.1886C48.0407 25.2437 47.6155 23.9603 47.6155 22.3384C47.6155 21.6297 47.7258 20.9368 47.9462 20.2597C48.1824 19.5668 48.458 18.9448 48.773 18.3937C49.1037 17.8267 49.4186 17.378 49.7178 17.0473C50.0328 16.7166 50.269 16.5512 50.4264 16.5512C50.5997 16.5512 50.7256 16.63 50.8044 16.7874ZM52.5523 26.4012C53.3239 26.4012 54.0326 26.1807 54.6782 25.7398C55.3396 25.2831 55.8671 24.6847 56.2608 23.9446C56.6545 23.1887 56.8513 22.3541 56.8513 21.4408C56.8513 20.118 56.56 19.0472 55.9774 18.2283C55.3947 17.3937 54.5601 16.9764 53.4735 16.9764C52.8122 16.9764 52.198 17.1339 51.6311 17.4488C51.08 17.7638 50.5997 18.1889 50.1902 18.7243C49.7965 19.244 49.4816 19.8188 49.2454 20.4487C49.0249 21.0786 48.9147 21.7006 48.9147 22.3147C48.9147 23.6218 49.2375 24.6296 49.8832 25.3382C50.5288 26.0469 51.4185 26.4012 52.5523 26.4012ZM65.0602 18.37C63.9264 18.1023 63.0209 17.7008 62.3438 17.1654C61.6666 16.63 61.3281 15.8426 61.3281 14.8033C61.3281 14.0474 61.5722 13.3388 62.0603 12.6774C62.5485 12.016 63.2099 11.4806 64.0445 11.0711C64.8948 10.646 65.8554 10.4334 66.9263 10.4334C67.8081 10.4334 68.6191 10.5672 69.3592 10.8349C70.1151 11.1026 70.7214 11.4176 71.178 11.7798C71.6347 12.1262 71.863 12.4412 71.863 12.7246C71.863 12.7246 71.8394 12.8112 71.7922 12.9844C71.7607 13.1577 71.7056 13.3309 71.6268 13.5041C71.5481 13.6773 71.4379 13.7639 71.2961 13.7639C71.1859 13.7639 71.0835 13.7167 70.9891 13.6222C70.8946 13.512 70.808 13.4254 70.7292 13.3624C70.2096 12.7482 69.5876 12.3231 68.8632 12.0868C68.1545 11.8349 67.5325 11.7089 66.9971 11.7089C66.1783 11.7089 65.446 11.8664 64.8004 12.1813C64.1705 12.4805 63.6666 12.8742 63.2886 13.3624C62.9264 13.8348 62.7453 14.3308 62.7453 14.8505C62.7453 15.4804 62.9815 15.9764 63.454 16.3386C63.9264 16.6851 64.6665 16.9685 65.6743 17.189L68.2254 17.8504C69.7372 18.2441 70.8552 18.8346 71.5796 19.6219C72.3197 20.4093 72.6898 21.4329 72.6898 22.6927C72.6898 23.606 72.4536 24.4328 71.9811 25.1729C71.5087 25.913 70.8158 26.5035 69.9025 26.9445C69.0049 27.3854 67.9105 27.6058 66.6192 27.6058C65.3122 27.6058 64.1783 27.3854 63.2178 26.9445C62.2572 26.5035 61.4068 25.8736 60.6667 25.0548C60.588 24.976 60.5486 24.8579 60.5486 24.7005C60.5486 24.4485 60.6431 24.2044 60.832 23.9682C61.021 23.732 61.21 23.6139 61.3989 23.6139C61.5092 23.6139 61.5958 23.669 61.6588 23.7792C62.0367 24.3934 62.454 24.8737 62.9107 25.2201C63.3831 25.5666 63.8555 25.8185 64.3279 25.976C64.8004 26.1335 65.2413 26.2358 65.6507 26.2831C66.0602 26.3146 66.3908 26.3303 66.6428 26.3303C67.5247 26.3303 68.312 26.1728 69.0049 25.8579C69.7135 25.5429 70.2726 25.1256 70.682 24.606C71.0914 24.0706 71.2961 23.4958 71.2961 22.8816C71.2961 21.8738 71.0284 21.0786 70.493 20.4959C69.9576 19.8975 69.0679 19.433 67.8239 19.1023L65.0602 18.37ZM76.8751 22.4801V22.5509C76.8751 23.8422 77.1664 24.8107 77.7491 25.4563C78.3475 26.102 79.0483 26.4248 79.8514 26.4248C80.8749 26.4248 81.804 26.2437 82.6386 25.8815C83.489 25.5036 84.2291 24.976 84.859 24.2989C85.048 24.0942 85.2133 23.9918 85.3551 23.9918C85.481 23.9918 85.544 24.0706 85.544 24.228C85.544 24.3698 85.4259 24.6217 85.1897 24.9839C84.9535 25.3461 84.5992 25.7319 84.1268 26.1413C83.6701 26.535 83.0796 26.8815 82.3552 27.1807C81.6466 27.4641 80.812 27.6058 79.8514 27.6058C79.0483 27.6058 78.3239 27.409 77.6782 27.0153C77.0483 26.6059 76.5444 26.0311 76.1665 25.291C75.7886 24.5351 75.5996 23.6454 75.5996 22.6218V22.2675C75.2689 22.047 75.1035 21.8108 75.1035 21.5589C75.1035 21.3699 75.2374 21.2754 75.5051 21.2754C75.5366 21.2754 75.5838 21.2754 75.6468 21.2754C75.7256 21.2597 75.7649 21.2518 75.7649 21.2518C75.8594 20.6849 76.072 20.0865 76.4027 19.4566C76.7491 18.8267 77.1822 18.2362 77.7019 17.685C78.2215 17.1339 78.812 16.6851 79.4734 16.3386C80.1348 15.9764 80.8513 15.7953 81.6229 15.7953C82.5835 15.7953 83.3473 15.9607 83.9142 16.2914C84.4811 16.6221 84.8826 17.0473 85.1188 17.5669C85.3708 18.0866 85.4968 18.6299 85.4968 19.1968C85.4968 19.6534 85.4417 20.0314 85.3314 20.3306C85.2212 20.6298 85.0007 20.8896 84.67 21.1101C84.3551 21.3148 83.8827 21.5195 83.2528 21.7242C82.5442 21.9289 81.6781 22.11 80.6545 22.2675C79.6309 22.4092 78.4656 22.4801 77.1586 22.4801H76.8751ZM77.5365 21.3227C78.7333 21.3227 79.749 21.2597 80.5836 21.1337C81.434 21.0077 82.1269 20.866 82.6623 20.7085C83.1504 20.5668 83.4969 20.4329 83.7016 20.307C83.9221 20.181 84.0638 20.0314 84.1268 19.8582C84.1898 19.6849 84.2213 19.4566 84.2213 19.1731C84.2213 18.4803 83.9929 17.937 83.5362 17.5433C83.0796 17.1339 82.4339 16.9292 81.5993 16.9292C81.0167 16.9292 80.4655 17.0788 79.9459 17.378C79.4262 17.6614 78.9616 18.0315 78.5522 18.4881C78.1585 18.9448 77.8278 19.4251 77.5601 19.929C77.2924 20.4329 77.1192 20.8975 77.0405 21.3227H77.5365ZM89.7006 22.4801V22.5509C89.7006 23.8422 89.9919 24.8107 90.5746 25.4563C91.173 26.102 91.8737 26.4248 92.6768 26.4248C93.7004 26.4248 94.6295 26.2437 95.4641 25.8815C96.3145 25.5036 97.0546 24.976 97.6845 24.2989C97.8734 24.0942 98.0388 23.9918 98.1805 23.9918C98.3065 23.9918 98.3695 24.0706 98.3695 24.228C98.3695 24.3698 98.2514 24.6217 98.0152 24.9839C97.779 25.3461 97.4246 25.7319 96.9522 26.1413C96.4956 26.535 95.905 26.8815 95.1807 27.1807C94.472 27.4641 93.6374 27.6058 92.6768 27.6058C91.8737 27.6058 91.1493 27.409 90.5037 27.0153C89.8738 26.6059 89.3699 26.0311 88.992 25.291C88.614 24.5351 88.425 23.6454 88.425 22.6218V22.2675C88.0944 22.047 87.929 21.8108 87.929 21.5589C87.929 21.3699 88.0629 21.2754 88.3306 21.2754C88.3621 21.2754 88.4093 21.2754 88.4723 21.2754C88.551 21.2597 88.5904 21.2518 88.5904 21.2518C88.6849 20.6849 88.8975 20.0865 89.2282 19.4566C89.5746 18.8267 90.0077 18.2362 90.5273 17.685C91.047 17.1339 91.6375 16.6851 92.2989 16.3386C92.9603 15.9764 93.6768 15.7953 94.4484 15.7953C95.409 15.7953 96.1727 15.9607 96.7396 16.2914C97.3065 16.6221 97.7081 17.0473 97.9443 17.5669C98.1963 18.0866 98.3222 18.6299 98.3222 19.1968C98.3222 19.6534 98.2671 20.0314 98.1569 20.3306C98.0467 20.6298 97.8262 20.8896 97.4955 21.1101C97.1806 21.3148 96.7081 21.5195 96.0782 21.7242C95.3696 21.9289 94.5035 22.11 93.4799 22.2675C92.4564 22.4092 91.2911 22.4801 89.984 22.4801H89.7006ZM90.362 21.3227C91.5588 21.3227 92.5745 21.2597 93.4091 21.1337C94.2594 21.0077 94.9523 20.866 95.4877 20.7085C95.9759 20.5668 96.3223 20.4329 96.527 20.307C96.7475 20.181 96.8892 20.0314 96.9522 19.8582C97.0152 19.6849 97.0467 19.4566 97.0467 19.1731C97.0467 18.4803 96.8184 17.937 96.3617 17.5433C95.905 17.1339 95.2594 16.9292 94.4248 16.9292C93.8421 16.9292 93.291 17.0788 92.7713 17.378C92.2516 17.6614 91.7871 18.0315 91.3777 18.4881C90.984 18.9448 90.6533 19.4251 90.3856 19.929C90.1179 20.4329 89.9447 20.8975 89.8659 21.3227H90.362Z" fill="black"/>
<path d="M42.5705 39.9859C34.0191 34.3867 25.1965 34.5199 23.0255 32.7871C21.5324 31.5871 20.7174 20.1223 23.1611 12.6572C27.0964 0.659672 18.682 -1.6072 13.9317 1.59334L7.55131 5.59297C3.47901 9.5926 -1.00009 9.5926 0.492945 11.059C1.85038 12.3908 9.99497 11.3254 11.7592 13.1913C15.1521 16.7914 9.85937 34.5213 9.04434 41.3205C7.82251 50.1189 8.90874 53.8522 17.5957 58.5177C20.0394 59.8495 23.8391 60.7832 26.9608 61.4505V67.5824H14.6097L17.7313 71.5821H20.853L23.9747 75.5817H30.218L33.2055 71.5821V62.5173L39.8557 63.4496C49.7645 64.6496 56.9585 63.5828 56.9585 63.5828C56.9585 63.5828 53.6998 47.3193 42.5705 39.9859Z" fill="white"/>
<path d="M27.0978 67.7141H14.8809L18.0025 71.7137H24.2473L27.0978 67.7141Z" fill="#3262F2" stroke="#175DFB" stroke-width="0.66907" stroke-linecap="round" stroke-linejoin="round"/>
<path d="M33.3411 71.7138H20.9886L24.1103 75.7135H30.355L33.3411 71.7138ZM12.0304 13.3245C10.2662 11.324 2.12156 12.524 0.765537 11.1908C-0.72891 9.72438 3.75019 9.72438 7.82249 5.72475C10.5374 3.05833 12.5728 4.92566 12.5728 8.12481L12.0304 13.3245Z" fill="#175DFB" stroke="#175DFB" stroke-width="0.66907" stroke-linecap="round" stroke-linejoin="round"/>
<path d="M12.4385 8.12479C12.5741 4.92564 10.4017 3.0597 7.68681 5.72474C3.61451 9.72437 -0.864592 9.72437 0.628443 11.1908C1.98588 12.524 10.1305 11.4571 11.8947 13.3245C15.2876 16.9232 9.99487 34.6531 9.17985 41.4523C7.95943 50.2507 9.04424 53.9839 17.7312 58.6495C22.6186 61.3159 33.3396 62.6491 33.3396 62.6491V71.7138M14.2028 1.72649C18.8175 -1.60723 27.2333 0.658256 23.4322 12.7903C20.9885 20.2555 21.8035 31.7203 23.2966 32.9203C25.4676 34.6544 34.1546 34.3867 42.8416 40.1205C53.9723 47.4511 57.2296 63.8477 57.2296 63.8477C57.2296 63.8477 50.0356 64.916 40.1268 63.7146" stroke="black" stroke-width="0.66907" stroke-linecap="round" stroke-linejoin="round"/>
<path d="M20.7174 44.1187C23.9747 55.0508 38.4982 57.0485 38.4982 57.0485" stroke="black" stroke-width="0.66907" stroke-miterlimit="10" stroke-linecap="round"/>
<path d="M24.2473 71.7138H18.0025L14.8809 67.7142H27.0978V61.5822M33.3411 71.7138H20.9886L24.1103 75.7134H30.355" stroke="black" stroke-width="0.66907" stroke-linecap="round" stroke-linejoin="round"/>
</svg>
